<svg xmlns="http://www.w3.org/2000/svg" viewBox="0 0 868.5 288.8"><defs><style>.cls-1,.cls-5{fill:#f57c00;}.cls-2{fill:#fff;}.cls-3{fill:#7c7c7c;}.cls-4{fill:#ffce63;}.cls-5{font-size:93px;font-family:Roboto-Black, Roboto;}.cls-6{letter-spacing:-0.02em;}.cls-7{letter-spacing:0em;}</style></defs><title>Brand</title><g id="Layer_2" data-name="Layer 2"><g id="Layer_1-2" data-name="Layer 1"><rect class="cls-1" width="308.19" height="288.8" rx="42.62" ry="42.62"/><rect class="cls-2" x="22.75" y="48.38" width="108.58" height="46.14" rx="20.6" ry="20.6"/><rect class="cls-2" x="22.75" y="121.33" width="108.58" height="46.14" rx="20.6" ry="20.6"/><rect class="cls-2" x="22.75" y="197.05" width="108.58" height="46.14" rx="20.6" ry="20.6"/><rect class="cls-2" x="169.36" y="48.38" width="110.61" height="46.14" rx="20.6" ry="20.6"/><rect class="cls-2" x="169.36" y="121.33" width="110.61" height="46.14" rx="20.6" ry="20.6"/><rect class="cls-2" x="169.36" y="197.05" width="110.61" height="46.14" rx="20.6" ry="20.6"/><path d="M279.71,133.17l-7.61,8.63c-3.55,4-11.27,3.53-17.25-1.1l-28.38-22,20.45-23.19,28.39,22C281.28,122.13,283.25,129.15,279.71,133.17Z"/><path d="M287.92,103l-6.35,7.2c-3,3.35-9.38,3-14.33-.88l-19.3-14.94L265,75l19.3,15C289.26,93.8,290.87,99.64,287.92,103Z"/><path d="M296.42,76.69,290.5,83.4c-2.76,3.13-8.35,3.07-12.48-.13L266,73.93l15.91-18,12.06,9.34C298.06,68.43,299.18,73.56,296.42,76.69Z"/><path d="M226.47,118.72,148.65,207a2.76,2.76,0,0,1-.89.66l-.06,0L83.78,238.4a3.62,3.62,0,0,1-3.72-.48,3.1,3.1,0,0,1-1.2-3.33l20.19-64.68h0a2.76,2.76,0,0,1,.52-.95l77.82-88.24,5.28,4.09-75.87,86c4.74,4.11,10.27,10.78,11.73,18.41l80.76-91.59,5.28,4.09L123,194.22a38.27,38.27,0,0,1,22.19,6.57l76-86.15ZM107.27,220l32.49-15.62c-13-7.27-23.58-2.68-23.7-2.63a3.65,3.65,0,0,1-3.65-.51,3.31,3.31,0,0,1-.47-.45,2.94,2.94,0,0,1-.64-3.13c3.57-8.78-2.86-16.94-7.27-21.21L93.71,209.51Zm-19.81,9.53,13.85-6.66-9.48-7.34Z"/><polygon points="246.92 95.53 226.47 118.72 221.19 114.64 241.65 91.44 246.92 95.53"/><polygon points="247.94 94.37 246.92 95.53 241.65 91.44 242.67 90.29 247.94 94.37"/><polygon points="265 75.02 247.94 94.37 242.67 90.29 259.73 70.94 265 75.02"/><polygon points="265.96 73.94 265 75.02 259.73 70.94 260.69 69.85 265.96 73.94"/><polygon points="281.87 55.89 265.96 73.94 260.69 69.85 276.6 51.81 281.87 55.89"/><path d="M287.2,49.85l-5.33,6-5.27-4.08L280,48,263.34,35.11,260,38.93l-5.28-4.09L258.06,31,241.44,18.15,238.08,22l-5.29-4.09,5.33-6a3.42,3.42,0,0,1,4.6-.18l43.8,33.91A3,3,0,0,1,287.2,49.85Z"/><path class="cls-3" d="M221.19,114.64l-76,86.15A38.27,38.27,0,0,0,123,194.22l81.53-92.46Z"/><polygon points="241.65 91.44 221.19 114.64 204.57 101.76 225.02 78.57 241.65 91.44"/><polygon class="cls-3" points="242.67 90.29 241.65 91.44 225.02 78.57 226.04 77.41 242.67 90.29"/><polygon points="259.73 70.94 242.67 90.29 226.04 77.41 243.1 58.06 259.73 70.94"/><polygon class="cls-3" points="260.69 69.85 259.73 70.94 243.1 58.06 244.06 56.98 260.69 69.85"/><polygon points="276.6 51.81 260.69 69.85 244.06 56.98 259.97 38.93 276.6 51.81"/><polygon class="cls-3" points="279.97 47.99 276.6 51.81 259.97 38.93 263.34 35.11 279.97 47.99"/><path class="cls-4" d="M139.76,204.38,107.27,220,93.71,209.51,104,176.45c4.41,4.27,10.84,12.43,7.27,21.21a2.94,2.94,0,0,0,.64,3.13,3.31,3.31,0,0,0,.47.45,3.65,3.65,0,0,0,3.65.51C116.18,201.7,126.73,197.11,139.76,204.38Z"/><polygon class="cls-3" points="101.31 222.88 87.46 229.53 91.83 215.53 101.31 222.88"/><polygon points="225.02 78.57 204.57 101.76 199.29 97.67 219.74 74.48 225.02 78.57"/><polygon points="226.04 77.41 225.02 78.57 219.74 74.48 220.76 73.33 226.04 77.41"/><polygon points="243.1 58.06 226.04 77.41 220.76 73.33 237.82 53.98 243.1 58.06"/><polygon points="244.06 56.98 243.1 58.06 237.82 53.98 238.78 52.89 244.06 56.98"/><polygon points="259.97 38.93 244.06 56.98 238.78 52.89 254.69 34.84 259.97 38.93"/><path class="cls-3" d="M199.29,97.67l-80.76,91.59c-1.46-7.63-7-14.3-11.73-18.41l75.87-86Z"/><polygon points="219.74 74.48 199.29 97.67 182.67 84.81 203.13 61.61 219.74 74.48"/><polygon class="cls-3" points="220.76 73.33 219.74 74.48 203.13 61.61 204.14 60.46 220.76 73.33"/><polygon points="237.82 53.98 220.76 73.33 204.14 60.46 221.21 41.11 237.82 53.98"/><polygon class="cls-3" points="238.78 52.89 237.82 53.98 221.21 41.11 222.16 40.02 238.78 52.89"/><polygon points="254.69 34.84 238.78 52.89 222.16 40.02 238.08 21.97 254.69 34.84"/><polygon class="cls-3" points="258.06 31.02 254.69 34.84 238.08 21.97 241.44 18.15 258.06 31.02"/><polygon points="203.13 61.61 182.67 84.81 177.39 80.72 197.84 57.52 203.13 61.61"/><polygon points="204.14 60.46 203.13 61.61 197.84 57.52 198.86 56.37 204.14 60.46"/><polygon points="221.21 41.11 204.14 60.46 198.86 56.37 215.92 37.02 221.21 41.11"/><polygon points="222.16 40.02 221.21 41.11 215.92 37.02 216.88 35.93 222.16 40.02"/><polygon points="238.08 21.97 222.16 40.02 216.88 35.93 232.79 17.88 238.08 21.97"/><path d="M197.84,57.52l-20.45,23.2L149,58.74c-6-4.63-7.95-11.65-4.41-15.67l7.61-8.63c3.55-4,11.27-3.53,17.25,1.1Z"/><path d="M215.92,37,198.86,56.37l-19.37-15c-5-3.84-6.57-9.67-3.61-13l6.35-7.19c3-3.36,9.37-3,14.33.87Z"/><path d="M232.79,17.88,216.88,35.93l-12-9.34c-4.14-3.2-5.25-8.33-2.49-11.46l5.92-6.71c2.76-3.13,8.34-3.07,12.48.13Z"/><text class="cls-5" transform="translate(330.02 115.16)"><tspan class="cls-6">W<tspan class="cls-7" x="79.42" y="0">orkout</tspan></tspan><tspan x="0" y="111.6">Companion</tspan></text></g></g></svg>