<svg xmlns="http://www.w3.org/2000/svg" viewBox="0 0 1024 1024"><defs><style>.cls-1{fill:#f57c00;}.cls-2{fill:#fff;}.cls-3{fill:#7c7c7c;}.cls-4{fill:#ffce63;}</style></defs><title>Logo</title><g id="Layer_2" data-name="Layer 2"><g id="Layer_1-2" data-name="Layer 1"><rect class="cls-1" width="1024" height="1024" rx="103.18" ry="103.18"/><rect class="cls-2" x="29.91" y="171.55" width="452.18" height="163.6" rx="25.45" ry="25.45"/><rect class="cls-2" x="29.91" y="430.2" width="452.18" height="163.6" rx="25.45" ry="25.45"/><rect class="cls-2" x="29.91" y="698.67" width="452.18" height="163.6" rx="25.45" ry="25.45"/><rect class="cls-2" x="520.39" y="171.55" width="452.18" height="163.6" rx="25.45" ry="25.45"/><rect class="cls-2" x="520.39" y="430.2" width="452.18" height="163.6" rx="25.45" ry="25.45"/><rect class="cls-2" x="520.39" y="698.67" width="452.18" height="163.6" rx="25.45" ry="25.45"/><path d="M929.37,472.19,904.1,502.77c-11.79,14.26-37.45,12.52-57.3-3.89l-94.32-77.94,68-82.24,94.32,77.94C934.61,433.05,941.16,457.92,929.37,472.19Z"/><path d="M956.65,365.17l-21.08,25.51c-9.83,11.9-31.16,10.52-47.63-3.09l-64.12-53L880.52,266l64.12,53C961.1,332.59,966.48,353.28,956.65,365.17Z"/><path d="M984.9,271.92,965.24,295.7c-9.17,11.1-27.75,10.9-41.48-.45l-40.06-33.1,52.87-64,40.06,33.11C990.36,242.61,994.07,260.81,984.9,271.92Z"/><path d="M752.48,420.94,493.92,733.85a9.38,9.38,0,0,1-2.95,2.34l-.22.13-212.38,109A11.86,11.86,0,0,1,262,831.78L329.1,602.42l0,0a9.7,9.7,0,0,1,1.72-3.35L589.4,286.19,607,300.69,354.85,605.78c15.78,14.55,34.15,38.23,39,65.28L662.17,346.32l17.55,14.5L408.83,688.64c19.47-.63,45.53,3.83,73.72,23.28L735,406.47ZM356.41,780.06l108-55.39c-43.32-25.8-78.37-9.51-78.76-9.33a11.5,11.5,0,0,1-12.12-1.83,11.17,11.17,0,0,1-1.57-1.58,10.87,10.87,0,0,1-2.12-11.1c11.86-31.13-9.52-60.05-24.15-75.21l-34.3,117.22Zm-65.8,33.78,46-23.6-31.49-26Z"/><rect x="724.35" y="361.22" width="106.69" height="22.73" transform="translate(-4.9 734.75) rotate(-50.43)"/><rect x="810.72" y="318.05" width="5.31" height="22.73" transform="translate(41.32 746.58) rotate(-50.43)"/><rect x="798.91" y="281.7" width="89" height="22.73" transform="translate(80.25 756.54) rotate(-50.43)"/><rect x="870.85" y="245.47" width="5" height="22.73" transform="translate(119.04 766.47) rotate(-50.43)"/><rect x="859.88" y="211.55" width="83" height="22.73" transform="translate(155.36 775.76) rotate(-50.43)"/><path d="M954.26,176.76l-17.69,21.4-17.52-14.47,11.19-13.55L875,124.49,863.81,138l-17.55-14.5L857.46,110,802.24,64.37,791.05,77.91l-17.56-14.5L791.18,42c3.6-4.35,10.45-4.64,15.29-.64L952,161.62C956.85,165.62,957.86,172.4,954.26,176.76Z"/><path class="cls-3" d="M735,406.47,482.55,711.92c-28.19-19.45-54.25-23.91-73.72-23.28L679.72,360.82Z"/><rect x="687.97" y="306.69" width="106.69" height="71.66" transform="matrix(0.64, -0.77, 0.77, 0.64, 5.06, 695.79)"/><rect class="cls-3" x="774.34" y="263.52" width="5.31" height="71.66" transform="translate(51.29 707.62) rotate(-50.43)"/><rect x="762.53" y="227.17" width="89" height="71.66" transform="translate(90.21 717.58) rotate(-50.43)"/><rect class="cls-3" x="834.47" y="190.94" width="5" height="71.66" transform="translate(129.01 727.51) rotate(-50.43)"/><rect x="823.49" y="157.02" width="83" height="71.66" transform="translate(165.33 736.8) rotate(-50.43)"/><rect class="cls-3" x="888.24" y="118.26" width="17.57" height="71.66" transform="translate(206.84 747.42) rotate(-50.43)"/><path class="cls-4" d="M464.39,724.67l-108,55.39-45-37.22,34.3-117.22c14.63,15.16,36,44.08,24.15,75.21a10.87,10.87,0,0,0,2.12,11.1,11.17,11.17,0,0,0,1.57,1.58,11.5,11.5,0,0,0,12.12,1.83C386,715.16,421.07,698.87,464.39,724.67Z"/><polygon class="cls-3" points="336.61 790.24 290.61 813.84 305.12 764.21 336.61 790.24"/><rect x="651.58" y="301.07" width="106.69" height="22.76" transform="matrix(0.64, -0.77, 0.77, 0.64, 15.03, 656.82)"/><rect x="737.94" y="257.9" width="5.31" height="22.76" transform="translate(61.26 668.65) rotate(-50.43)"/><rect x="726.14" y="221.55" width="89" height="22.76" transform="translate(100.19 678.61) rotate(-50.43)"/><rect x="798.07" y="185.32" width="5" height="22.76" transform="translate(138.98 688.54) rotate(-50.43)"/><rect x="787.1" y="151.4" width="83" height="22.76" transform="translate(175.3 697.83) rotate(-50.43)"/><path class="cls-3" d="M662.17,346.32,393.83,671.06c-4.83-27-23.2-50.73-39-65.28L607,300.69Z"/><rect x="615.2" y="246.57" width="106.69" height="71.63" transform="translate(25 617.87) rotate(-50.43)"/><rect class="cls-3" x="701.56" y="203.4" width="5.31" height="71.63" transform="translate(71.23 629.69) rotate(-50.43)"/><rect x="689.75" y="167.05" width="89" height="71.63" transform="translate(110.15 639.65) rotate(-50.43)"/><rect class="cls-3" x="761.69" y="130.82" width="5" height="71.63" transform="translate(148.95 649.58) rotate(-50.43)"/><rect x="750.72" y="96.9" width="83" height="71.63" transform="translate(185.27 658.87) rotate(-50.43)"/><rect class="cls-3" x="815.47" y="58.14" width="17.57" height="71.63" transform="translate(226.78 669.49) rotate(-50.43)"/><rect x="578.81" y="240.93" width="106.69" height="22.77" transform="matrix(0.64, -0.77, 0.77, 0.64, 34.97, 578.9)"/><rect x="665.18" y="197.77" width="5.31" height="22.77" transform="translate(81.2 590.73) rotate(-50.43)"/><rect x="653.37" y="161.41" width="89" height="22.77" transform="translate(120.12 600.69) rotate(-50.43)"/><rect x="725.31" y="125.18" width="5" height="22.77" transform="translate(158.92 610.62) rotate(-50.43)"/><rect x="714.34" y="91.27" width="83" height="22.77" transform="translate(195.24 619.91) rotate(-50.43)"/><path d="M657.36,203.94l-68,82.25-94.3-77.93c-19.87-16.42-26.42-41.29-14.63-55.56l25.27-30.58c11.79-14.26,37.45-12.52,57.32,3.89Z"/><path d="M717.44,131.24l-56.69,68.61L596.4,146.68c-16.46-13.61-21.83-34.28-12-46.18L605.48,75c9.83-11.9,31.15-10.52,47.62,3.08Z"/><path d="M773.49,63.41l-52.87,64-40-33.1c-13.74-11.35-17.43-29.54-8.26-40.64L692,29.86c9.17-11.1,27.73-10.9,41.47.45Z"/></g></g></svg>